<svg xmlns="http://www.w3.org/2000/svg" viewBox="0 0 299 299">
  <defs/>
  <defs>
    <pattern id="新規パターンスウォッチ_11" width="90.71" height="90.71" data-name="新規パターンスウォッチ 11" patternTransform="matrix(.68 .38 -.38 .68 816.45 245.22)" patternUnits="userSpaceOnUse" viewBox="0 0 90.71 90.71">
      <path fill="none" d="M0 0h90.71v90.71H0z"/>
      <path d="M0 61.33v13.4a40.2 40.2 0 012.84 16H8.5c0-12-3-18.08-6-23.95C1.65 65 .78 63.24 0 61.33zM8.5 45.35c0-10.67 2.61-15.88 5.38-21.41 2.93-5.86 6-11.93 6-23.94h-5.71c0 10.67-2.6 15.89-5.37 21.41-2.93 5.87-6 11.94-6 23.94s3 18.08 6 23.95c2.77 5.52 5.37 10.74 5.37 21.41h5.67c0-12-3-18.08-6-23.95C11.11 61.24 8.5 56 8.5 45.35zM90.71 16c-.78 1.9-1.65 3.65-2.54 5.43-2.93 5.87-6 11.94-6 23.94s3 18.08 6 23.95c.89 1.78 1.76 3.53 2.54 5.43V61.33a40.16 40.16 0 01-2.84-16 40.14 40.14 0 012.84-16z" class="cls-2"/>
      <path d="M19.84 45.35c0-10.67 2.61-15.88 5.37-21.41 2.94-5.86 6-11.93 6-23.94h-5.7c0 10.67-2.61 15.89-5.37 21.41-2.93 5.87-6 11.94-6 23.94s3 18.08 6 23.95c2.76 5.52 5.37 10.7 5.37 21.41h5.67c0-12-3-18.08-6-23.95-2.73-5.52-5.34-10.76-5.34-21.41zM0 29.38c.78-1.91 1.65-3.66 2.54-5.44C5.47 18.08 8.5 12 8.5 0H2.84A40.2 40.2 0 010 16zM76.53 45.35c0-10.67 2.61-15.88 5.38-21.41 2.93-5.86 6-11.93 6-23.94H82.2c0 10.67-2.6 15.89-5.37 21.41-2.93 5.87-6 11.94-6 23.94s3 18.08 6 23.95C79.6 74.82 82.2 80 82.2 90.71h5.67c0-12-3-18.08-6-23.95-2.73-5.52-5.34-10.76-5.34-21.41z" class="cls-2"/>
      <path d="M65.2 45.35c0-10.67 2.61-15.88 5.37-21.41 2.93-5.86 6-11.93 6-23.94h-5.7c0 10.67-2.61 15.89-5.37 21.41-2.94 5.87-6 11.94-6 23.94s3 18.08 6 23.95c2.76 5.52 5.37 10.74 5.37 21.41h5.67c0-12-3-18.08-6-23.95C67.81 61.24 65.2 56 65.2 45.35zM42.52 45.35c0-10.67 2.61-15.88 5.37-21.41 2.93-5.86 6-11.93 6-23.94h-5.7c0 10.67-2.61 15.89-5.37 21.41-2.94 5.87-6 11.94-6 23.94s3 18.08 6 23.95c2.76 5.52 5.37 10.74 5.37 21.41h5.67c0-12-3-18.08-6-23.95-2.73-5.52-5.34-10.76-5.34-21.41z" class="cls-2"/>
      <path d="M31.18 45.35c0-10.67 2.61-15.88 5.37-21.41 2.94-5.86 6-11.93 6-23.94h-5.7c0 10.67-2.61 15.89-5.37 21.41-2.93 5.87-6 11.94-6 23.94s3 18.08 6 23.95c2.76 5.52 5.37 10.74 5.37 21.41h5.67c0-12-3-18.08-6-23.95-2.73-5.52-5.34-10.76-5.34-21.41zM53.86 45.35c0-10.67 2.61-15.88 5.37-21.41 2.93-5.86 6-11.93 6-23.94h-5.7c0 10.67-2.61 15.89-5.37 21.41-2.94 5.87-6 11.94-6 23.94s3 18.08 6 23.95c2.76 5.52 5.37 10.74 5.37 21.41h5.67c0-12-3-18.08-6-23.95-2.73-5.52-5.34-10.76-5.34-21.41z" class="cls-2"/>
    </pattern>
    <style>
      .cls-2{fill:#fff}
    </style>
  </defs>
  <g id="Layer_2" data-name="Layer 2">
    <path id="design" fill="url(#新規パターンスウォッチ_11)" d="M0 0h299v299H0z" opacity=".8"/>
  </g>
</svg>
