<?xml version="1.0" encoding="utf-8"?>
<!-- Generator: Adobe Illustrator 24.1.0, SVG Export Plug-In . SVG Version: 6.00 Build 0)  -->
<svg version="1.1" id="Layer_1" xmlns="http://www.w3.org/2000/svg" xmlns:xlink="http://www.w3.org/1999/xlink" x="0px" y="0px"
	 width="200px" height="101px" viewBox="0 0 200 101" style="enable-background:new 0 0 200 101;" xml:space="preserve">
<style type="text/css">
	.st0{fill:#202020;}
</style>
<g>
	<g>
		<path class="st0" d="M120.1,94c-0.9,0-1.3-0.6-0.8-1.4l4-6.9c0.5-0.8,1.2-0.8,1.6,0l4,6.9c0.4,0.8,0.1,1.4-0.8,1.4H120.1z"/>
		<path class="st0" d="M120.1,54c-0.9,0-1.3,0.6-0.8,1.4l4,6.9c0.5,0.8,1.2,0.8,1.6,0l4-6.9c0.4-0.8,0.1-1.4-0.8-1.4H120.1z"/>
	</g>
	<path class="st0" d="M66.2,67.8c0-9.9,0.1-11.7-0.1-13.8c-0.1-2.3-0.7-2.9-2.7-3.5c-0.5-0.2-1.5-0.2-2.4-0.2
		c-0.7,0-1.1-0.2-1.1-0.7c0-0.5,0.4-0.6,1.3-0.6c3.3,0,7.4,0.2,9.2,0.2c1.5,0,5.7-0.2,7.9-0.2c0.9,0,1.3,0.2,1.3,0.6
		c0,0.5-0.4,0.7-1,0.7c-0.7,0-1,0.1-1.8,0.2c-1.6,0.3-2.1,1.2-2.2,3.5c-0.1,2.1-0.1,3.9-0.1,13.8v9.1c0,9.5,1.7,13.2,4.7,15.7
		c2.7,2.4,5.7,2.6,7.8,2.6c2.7,0,5.8-0.8,8.3-3.4c3.4-3.5,3.6-9.2,3.6-15.8v-8.2c0-9.9-0.1-11.7-0.1-13.8c-0.1-2.2-0.6-2.9-2.6-3.5
		c-0.5-0.2-1.5-0.2-2.2-0.2c-0.7,0-1.1-0.2-1.1-0.7c0-0.5,0.4-0.6,1.3-0.6c3.2,0,7.3,0.2,7.4,0.2c0.7,0,4.8-0.2,7.2-0.2
		c0.8,0,1.3,0.2,1.3,0.6c0,0.5-0.3,0.7-1.1,0.7c-0.7,0-1,0.1-1.8,0.2c-1.7,0.3-2.1,1.2-2.2,3.5c-0.1,2.1-0.1,3.9-0.1,13.8v7
		c0,7.3-0.7,14.9-5.9,19.6c-4.3,4-9,4.7-13,4.7c-3.2,0-9.6-0.2-14.1-4.4c-3.2-3-5.6-7.8-5.6-17.2V67.8z"/>
	<path class="st0" d="M24.1,100c-6.1,0-10.2-0.9-15.7-3.4c-1.9-0.9-2-1.4-2.2-4.8c-0.3-6.4-0.1-12.2-0.1-14.2c0.1-1.4,0.3-2,0.9-2
		c0.8,0,0.9,0.4,1,1.4c0.1,1.1,0.2,3.6,0.6,5.4c2.5,9.4,8.9,13.3,17.7,13.3c9,0,15.8-5.5,15.3-14.8c-0.4-7.3-4-11.9-17.1-21.4
		l-3.8-2.8C4.7,44.6,0.6,36.7,0,26.5c-0.3-5.2,1.3-14.9,10-21.2C15.4,1.5,22.4,0,29.5,0c5.1,0,8.9,1.3,12.2,2.1
		c2.5,0.5,3.6,0.8,4.6,0.8c1.1,0,1.3,0.3,1.4,0.9c0,0.6-0.3,5.5,0.2,14.2c0.1,2-0.1,2.9-0.8,2.9c-0.8,0-1-0.6-1.1-1.6
		c-0.2-1.5-1.2-5.6-2-7c-0.9-1.4-5.1-7.5-17.1-7.5c-12.6,0-18.2,8.8-17.8,17c0.5,8.8,4.5,13.9,16.3,23l6.1,4.7
		c14.5,11.1,18,19,18.5,27.7C50.7,90.7,40.7,100,24.1,100z"/>
	<path class="st0" d="M169.2,99c-7.5,0-14.2-2-20-4.5c-2-0.9-2.2-1.4-2.4-4.8c-0.4-6.3-0.1-12-0.1-14c0.1-1.4,0.3-2,1-2
		c0.8,0,1,0.4,1.1,1.4c0.1,1.1,0.2,3.5,0.7,5.3c2.6,9.3,9.6,13,18.9,13c11.3,0,22.1-8,21.2-24.8c-1.2-22.7-23.4-22.9-36.5-24.6
		c-2.7-0.4-3.7-0.9-3.6-2.3l5-38.6c0.1-1.3,1-1.7,2.5-1.7h20.4c3.8,0,6.2-0.2,7.8-0.5c1.6-0.1,2.4-0.4,2.8-0.4c0.5,0,1,0.3,1,1.3
		c0.1,1.1,0.7,7.4-0.2,16.7c-0.1,0.6-0.5,1.4-1,1.4c-0.5,0-0.8-0.8-0.9-1.7c-0.3-4.8-2.4-8.8-13-8.8h-11.5c-1.5,0-2.4,0.4-2.5,1.7
		l0,0l-3.2,24.9l0,0c0,0.9,0.5,1.3,1.3,1.5c0,0,1,0.1,1.1,0.1l0,0c19,0.9,39.1,7.3,40.7,26.9C201,78.2,193.8,99,169.2,99z"/>
</g>
</svg>
